<?xml version="1.0" encoding="utf-8"?>
<svg xmlns="http://www.w3.org/2000/svg" viewBox="0 0 48 48" width="40" height="40">
  <path d="M32.427734 4.0371094C29.597703 4.0371094 26.767786 5.1111204 24.617188 7.2617188L4.4394531 27.439453 A 1.50015 1.50015 0 1 0 6.5605469 29.560547L26.738281 9.3828125C29.893085 6.228009 34.962384 6.228009 38.117188 9.3828125C41.271991 12.537616 41.271991 17.606915 38.117188 20.761719L19.074219 39.804688C17.438523 41.440384 14.83101 41.440384 13.195312 39.804688C11.559617 38.16899 11.559616 35.561477 13.195312 33.925781L28.560547 18.560547 A 1.50015 1.50015 0 1 0 26.439453 16.439453L11.074219 31.804688C8.2919146 34.58699 8.2919147 39.143477 11.074219 41.925781C13.856523 44.708085 18.413009 44.708085 21.195312 41.925781L40.238281 22.882812C44.539478 18.581616 44.539478 11.562915 40.238281 7.2617188C38.087683 5.1111204 35.257765 4.0371094 32.427734 4.0371094 z" fill="#FFFFFF" />
</svg>