<?xml version="1.0" encoding="utf-8"?>
<svg xmlns="http://www.w3.org/2000/svg" viewBox="0 0 48 48" width="12" height="12">
  <path d="M10.5 5C6.9280619 5 4 7.9280619 4 11.5L4 27.5L4 33.451172C4 35.437818 6.4320901 36.674614 8.0390625 35.507812L12.09375 32.558594C12.601612 35.639939 15.277093 38 18.5 38L31.011719 38L39.960938 44.507812C40.405938 44.830813 40.928078 44.996094 41.455078 44.996094C41.849078 44.996094 42.245328 44.903797 42.611328 44.716797C43.468328 44.280797 44 43.412172 44 42.451172L44 20.5C44 16.916 41.084 14 37.5 14L36 14L36 11.5C36 7.9280619 33.071938 5 29.5 5L10.5 5 z M 10.5 8L29.5 8C31.450062 8 33 9.5499381 33 11.5L33 22.5C33 24.450062 31.450062 26 29.5 26L16.5 26 A 1.50015 1.50015 0 0 0 15.617188 26.287109L7 32.554688L7 27.5L7 11.5C7 9.5499381 8.5499381 8 10.5 8 z M 13.5 12 A 1.50015 1.50015 0 1 0 13.5 15L26.5 15 A 1.50015 1.50015 0 1 0 26.5 12L13.5 12 z M 36 17L37.5 17C39.43 17 41 18.57 41 20.5L41 41.554688L32.382812 35.287109C32.126812 35.101109 31.817 35 31.5 35L18.5 35C16.57 35 15 33.43 15 31.5L15 30.445312L16.988281 29L29.5 29C33.071938 29 36 26.071938 36 22.5L36 17 z M 13.5 19 A 1.50015 1.50015 0 1 0 13.5 22L23.5 22 A 1.50015 1.50015 0 1 0 23.5 19L13.5 19 z" fill="#FFFFFF" />
</svg>