<?xml version="1.0" encoding="utf-8"?>
<svg xmlns="http://www.w3.org/2000/svg" viewBox="0 0 50 50" width="500" height="500">
  <path d="M13 42C12.472656 42 11.960938 41.789063 11.585938 41.414063L0.585938 30.414063C-0.195313 29.632813 -0.195313 28.367188 0.585938 27.585938C1.367188 26.804688 2.632813 26.804688 3.414063 27.585938L12.859375 37.03125L35.460938 9.726563C36.164063 8.871094 37.425781 8.753906 38.273438 9.460938C39.125 10.164063 39.246094 11.425781 38.539063 12.273438L14.539063 41.273438C14.183594 41.710938 13.65625 41.972656 13.09375 41.996094C13.0625 42 13.03125 42 13 42 Z M 24.09375 41.996094C24.65625 41.972656 25.179688 41.710938 25.539063 41.273438L49.539063 12.273438C50.246094 11.425781 50.125 10.164063 49.273438 9.460938C48.425781 8.753906 47.164063 8.875 46.460938 9.726563L23.859375 37.03125L23.414063 36.585938C22.632813 35.804688 21.367188 35.804688 20.585938 36.585938C19.804688 37.367188 19.804688 38.632813 20.585938 39.414063L22.585938 41.414063C22.960938 41.789063 23.472656 42 24 42C24.03125 42 24.0625 42 24.09375 41.996094Z" fill="#FFFFFF" />
</svg>