<?xml version="1.0" encoding="utf-8"?>
<svg xmlns="http://www.w3.org/2000/svg" viewBox="0 0 48 48" width="40" height="40">
  <path d="M5.4453125 4.0019531 A 1.50015 1.50015 0 0 0 4.109375 6.0644531L11.380859 24L4.109375 41.935547 A 1.50015 1.50015 0 0 0 6.1699219 43.841797L43.169922 25.341797 A 1.50015 1.50015 0 0 0 43.169922 22.658203L6.1699219 4.1582031 A 1.50015 1.50015 0 0 0 5.4453125 4.0019531 z M 8.3828125 8.6191406L39.146484 24L8.3828125 39.380859L14.011719 25.5L27.5 25.5 A 1.50015 1.50015 0 1 0 27.5 22.5L14.011719 22.5L8.3828125 8.6191406 z" fill="#FFFFFF" />
</svg>